<?xml version="1.0" encoding="utf-8"?>
<!-- Generator: Adobe Illustrator 25.2.1, SVG Export Plug-In . SVG Version: 6.00 Build 0)  -->
<svg version="1.1" id="Слой_1" xmlns="http://www.w3.org/2000/svg" xmlns:xlink="http://www.w3.org/1999/xlink" x="0px" y="0px"
	 viewBox="0 0 572.7 90" style="enable-background:new 0 0 572.7 90;" xml:space="preserve">
<style type="text/css">
	.st0{fill:#FFFFFF;}
	.st1{fill:#C2C1C1;}
	.st2{fill:#3F84C5;}
	.st3{fill:none;stroke:#C2C1C1;stroke-width:0.25;stroke-miterlimit:10;}
	.st4{fill:#E63A12;}
</style>
<g>
	<g>
		<path class="st0" d="M59.6,8.1c-2.7,3.9-5.3,7.7-8,11.5c-0.6,0.9-0.6,1.4,0,2.3c6.6,9.5,13.1,18.9,19.6,28.4
			C79.1,61.8,87,73.3,95,84.7c0.2,0.3,0.7,0.7,1.1,0.7c5.6,0,11.2,0,17.1,0C95.3,59.6,77.5,33.9,59.6,8.1z"/>
		<path class="st0" d="M72.8,66.4c-2.8-4-5.7-8-8.4-12.1c-0.1-0.1-0.4-0.6-0.9-0.9c-0.4-0.2-0.8-0.2-0.9-0.2c-0.8,0-7.4,0-16.5,0
			c1.6-2.3,3.1-4.6,4.7-6.8c1.2-1.7,2.4-3.5,3.7-5.4c-0.6,0-1,0-1.4,0c-4.9,0-9.8,0-14.8,0c-1,0-1.6,0.3-2.1,1.1
			c-2.6,3.8-5.3,7.6-7.9,11.4c-3.2,4.5-6.3,9-9.5,13.5c-2.9,4.2-5.8,8.4-8.7,12.6c-1.3,1.9-2.6,3.8-4,5.9c0.5,0,0.8,0,1.2,0
			c5.2,0,10.4,0,15.5,0c0.8,0,1.2-0.3,1.6-0.9c3.8-5.6,7.7-11.2,11.5-16.7c0.1-0.1,0.2-0.2,0.2-0.3c6.8,0,13.6,0,20.4,0
			c5.7,0,11.4,0,17.1,0c-0.1-0.1-0.2-0.3-0.4-0.5C73,66.7,72.8,66.4,72.8,66.4z"/>
	</g>
	<path class="st0" d="M209.4,80.2c-6.5-8.5-13-17-19.5-25.6c2.4-1.6,4.5-3.7,6.4-6.1c3.4-4.3,4.9-9,4.9-14.3c0-0.7,0-3.8-1.3-7.7
		c-1.8-5.7-4.9-9.2-5.8-10.2c-2.8-3.1-5.6-4.7-6.4-5.1C182,8,176.4,8.1,173.5,8.1c-2.7,0-5.8,0-9.1,0l0,0c-1,0-2.1,0-3.1,0
		C154.1,8,145.5,8,135.9,8c0.3,0.4,0.4,0.6,0.6,0.9c2.8,4,5.5,8,8.3,12c0.2,0.3,0.4,0.5,0.6,0.6c0.4,0.2,0.8,0.2,0.9,0.2
		c0.8,0,11.8,0,27,0c3.8,0,7,1.2,9.8,3.7s4.2,5.4,4.2,8.8c0,3.5-1.4,6.6-4.2,9c-2.3,2.1-5.1,3.3-8.1,3.6h-13h-1.2l0,0h-14.4h-0.9
		l0,0c-2.8,0-5.6,0-8.4,0c-0.4,0-0.7,0.3-0.7,0.7v36.9v1.2h2.2h9.7h2.2v-1.2c0-8.3,0-16.5,0-24.8c6.2,0,12.3,0,18.5,0
		c2,0.1,4.2,0,6.7-0.2c6.4,8.5,12.9,16.9,19.3,25.4c0.4,0.6,0.8,0.8,1.6,0.8c5.2,0,10.5,0,15.7,0c0.3,0,0.6,0,1.2,0
		C212.1,83.7,210.8,82,209.4,80.2z"/>
	<path class="st0" d="M386.5,74.3c-0.1,3.7-0.1,7.5-0.2,11.2c0.2,0,0.4,0,0.6,0l0,0c2.1,0,4.2,0,6.3,0c2.1,0,4.2,0,6.3,0l0,0
		c0.2,0,0.4,0,0.6,0c-0.1-3.7-0.1-7.5-0.2-11.2c0,0-0.1-30.2,0-34l0.2-11c0-0.4-0.3-0.7-0.7-0.7h-12.5c-0.4,0-0.7,0.3-0.7,0.7
		L386.5,74.3z"/>
	<g>
		<path class="st0" d="M289.9,8c-2.7,3.9-5.3,7.7-8,11.5c-0.6,0.9-0.6,1.4,0,2.3c6.6,9.5,13.1,19,19.7,28.5
			c7.9,11.5,15.9,23,23.8,34.5c0.2,0.3,0.7,0.7,1.1,0.7c5.6,0,11.3,0,17.2,0C325.7,59.6,307.8,33.9,289.9,8z"/>
		<path class="st0" d="M303.1,66.5c-2.8-4-5.7-8.1-8.5-12.1c-0.1-0.1-0.4-0.6-0.9-0.9c-0.4-0.2-0.8-0.2-0.9-0.2c-0.8,0-7.4,0-16.5,0
			c1.6-2.3,3.1-4.6,4.7-6.9c1.2-1.7,2.4-3.5,3.7-5.4c-0.6,0-1,0-1.4,0c-4.9,0-9.9,0-14.8,0c-1,0-1.6,0.3-2.2,1.1
			c-2.6,3.8-5.3,7.6-7.9,11.4c-3.2,4.6-6.3,9.1-9.5,13.7c-2.9,4.2-5.8,8.4-8.7,12.6c-1.3,1.9-2.6,3.8-4.1,5.9c0.5,0,0.8,0,1.2,0
			c5.2,0,10.4,0,15.6,0c0.8,0,1.2-0.3,1.6-0.9c3.9-5.6,7.7-11.2,11.6-16.8c0.1-0.1,0.2-0.2,0.2-0.3c6.8,0,13.6,0,20.5,0
			c5.7,0,11.4,0,17.1,0c-0.1-0.1-0.2-0.3-0.4-0.5C303.3,66.7,303.2,66.5,303.1,66.5z"/>
	</g>
	<g>
		<path class="st1" d="M492.3,11.6l-9.8,24.3h-2l-6.1-12.5l-6.1,12.5h-2l-9.8-24.3h6.9l4.5,11.5l5.5-11.9h2l5.5,11.9l4.5-11.5
			C485.4,11.6,492.3,11.6,492.3,11.6z"/>
		<path class="st1" d="M509.6,28.6H498c0.7,1.4,2,2.1,4.1,2.1c1.6,0,3.2-0.5,4.7-1.4l2.2,4.2c-2.1,1.6-4.5,2.4-7.2,2.4
			c-2,0-3.7-0.4-5.2-1.2s-2.8-2-3.6-3.4c-0.9-1.4-1.3-3-1.3-4.8c0-1.8,0.4-3.4,1.3-4.8s2-2.6,3.5-3.4s3.1-1.2,4.9-1.2
			c1.7,0,3.3,0.4,4.6,1.2c1.3,0.8,2.3,1.8,3,3.1c0.7,1.3,1.1,2.7,1.1,4.3C510,26.6,509.8,27.6,509.6,28.6z M499,22.5
			c-0.6,0.5-1,1.1-1.2,2h6.3c0-0.8-0.3-1.5-0.9-2s-1.3-0.7-2.1-0.7C500.3,21.8,499.6,22.1,499,22.5z"/>
		<path class="st1" d="M528.4,18.2c1.3,0.8,2.3,1.9,3.1,3.4c0.7,1.4,1.1,3.1,1.1,4.9s-0.4,3.5-1.1,4.9c-0.7,1.4-1.8,2.5-3.1,3.3
			s-2.8,1.2-4.5,1.2c-2.3,0-4-0.8-5.2-2.3v1.9H513V8.3h6.2v10.3c1.2-1.1,2.7-1.7,4.6-1.7C525.6,17,527.1,17.4,528.4,18.2z
			 M525.3,29.3c0.7-0.7,1-1.6,1-2.8c0-1.2-0.3-2.1-1-2.8c-0.7-0.7-1.5-1-2.5-1s-1.8,0.3-2.5,1s-1,1.6-1,2.9s0.3,2.2,1,2.8
			s1.5,1,2.5,1C523.7,30.3,524.6,29.9,525.3,29.3z"/>
		<path class="st1" d="M460.6,65.5c-1.7-1-2.9-2.3-3.8-3.9l4.2-3.2c0.7,0.9,1.5,1.7,2.3,2.2c0.8,0.6,1.8,0.8,3,0.8
			c1.6,0,2.5-0.6,2.5-1.7c0-0.5-0.2-0.9-0.5-1.2s-1-0.6-1.9-1l-2.5-1.1c-2-0.9-3.5-1.9-4.5-3s-1.5-2.5-1.5-4.2
			c0-1.4,0.4-2.6,1.1-3.7s1.7-1.9,3-2.5s2.7-0.9,4.3-0.9c2,0,3.7,0.4,5,1.3c1.4,0.9,2.4,2,3.1,3.5l-4.2,3.2
			c-0.6-0.9-1.2-1.5-1.8-1.9c-0.6-0.4-1.3-0.6-2.2-0.6c-0.7,0-1.2,0.1-1.6,0.4c-0.4,0.3-0.6,0.6-0.6,1.1c0,0.4,0.2,0.8,0.5,1.1
			s0.8,0.6,1.6,0.9l2.8,1.2c2.1,0.9,3.6,1.9,4.6,3s1.5,2.5,1.5,4.2c0,1.5-0.4,2.8-1.1,4c-0.8,1.1-1.8,2-3.1,2.6
			c-1.3,0.6-2.8,0.9-4.5,0.9C464.2,66.9,462.3,66.4,460.6,65.5z"/>
		<path class="st1" d="M490.8,61.3v5.2c-1.2,0.3-2.4,0.4-3.7,0.4c-2.6,0-4.5-0.6-5.9-1.8c-1.4-1.2-2.1-3.1-2.1-5.5v-6h-2.8v-5.2h2.8
			V44h6.2v4.3h4.8v5.2h-4.8V59c0,0.9,0.2,1.5,0.7,1.8c0.5,0.4,1.3,0.5,2.4,0.5H490.8z"/>
		<path class="st1" d="M502.7,66.9c-1.7,0-3.2-0.4-4.6-1.1s-2.4-1.8-3.2-3.1c-0.8-1.3-1.1-2.9-1.1-4.7v-9.7h6.2v10.2
			c0,0.8,0.2,1.4,0.7,1.9s1.1,0.7,1.9,0.7c0.7,0,1.4-0.2,1.9-0.7s0.7-1.1,0.7-1.9V48.4h6.2v9.7c0,1.8-0.4,3.3-1.1,4.7
			c-0.8,1.3-1.8,2.4-3.1,3.1C505.9,66.5,504.4,66.9,502.7,66.9z"/>
		<path class="st1" d="M534.1,39.3v27.1h-5.7v-1.9c-1.1,1.5-2.9,2.3-5.2,2.3c-1.7,0-3.2-0.4-4.5-1.2c-1.3-0.8-2.4-1.9-3.1-3.3
			c-0.7-1.4-1.1-3.1-1.1-4.9c0-1.8,0.4-3.5,1.1-4.9c0.7-1.4,1.8-2.6,3.1-3.4c1.3-0.8,2.8-1.2,4.5-1.2c1.9,0,3.5,0.6,4.6,1.7V39.3
			H534.1z M526.9,60.3c0.7-0.7,1-1.6,1-2.8s-0.3-2.2-1-2.9s-1.5-1-2.5-1s-1.8,0.3-2.5,1s-1,1.6-1,2.8s0.3,2.1,1,2.8s1.5,1,2.5,1
			C525.4,61.3,526.2,60.9,526.9,60.3z"/>
		<path class="st1" d="M541.2,45.6c-1.1,0-2-0.3-2.7-1s-1.1-1.6-1.1-2.6s0.4-1.9,1.1-2.6c0.7-0.7,1.6-1.1,2.7-1.1s2,0.4,2.7,1.1
			c0.7,0.7,1.1,1.6,1.1,2.6s-0.4,1.9-1.1,2.6C543.2,45.3,542.3,45.6,541.2,45.6z M538.1,48.4h6.2v18.1h-6.2V48.4z"/>
		<path class="st1" d="M557.3,66.9c-1.8,0-3.5-0.4-5-1.3c-1.5-0.8-2.7-2-3.6-3.4s-1.3-3-1.3-4.8c0-1.7,0.4-3.3,1.3-4.8
			c0.9-1.4,2.1-2.6,3.6-3.4c1.5-0.8,3.2-1.3,5-1.3s3.5,0.4,5,1.3c1.5,0.8,2.7,2,3.6,3.4c0.9,1.4,1.3,3,1.3,4.8
			c0,1.7-0.4,3.3-1.3,4.8s-2.1,2.6-3.6,3.4C560.8,66.5,559.1,66.9,557.3,66.9z M559.9,60.1c0.7-0.7,1-1.6,1-2.7c0-1.1-0.3-2-1-2.7
			s-1.5-1.1-2.5-1.1s-1.9,0.4-2.5,1c-0.7,0.7-1,1.6-1,2.7c0,1.1,0.3,2,1,2.7s1.5,1,2.5,1C558.4,61.2,559.2,60.8,559.9,60.1z"/>
	</g>
	<circle class="st2" cx="461.7" cy="78.5" r="5.7"/>
	<line class="st3" x1="446.2" y1="9.8" x2="446.2" y2="83.9"/>
	<path class="st4" d="M348.9,8.3C348.8,8.3,348.8,8.2,348.9,8.3C348.8,8.2,348.8,8.3,348.9,8.3c3.1,4.6,6.1,8.9,9.2,13.3
		c0.1,0.1,0.3,0.2,0.5,0.3c9.8,0,19.5,0,29.3,0c3.8,0,7.6,0,11.4,0c9.4,0,18.7,0,28.1,0c0.4,0,0.9-0.2,1.1-0.5c3-4.3,6-8.7,9.2-13.3
		C407.9,8.2,378.4,8.2,348.9,8.3z"/>
</g>
</svg>
