<?xml version="1.0" encoding="utf-8"?>
<!-- Generator: Adobe Illustrator 25.2.1, SVG Export Plug-In . SVG Version: 6.00 Build 0)  -->
<svg version="1.1" id="Layer_1" xmlns="http://www.w3.org/2000/svg" xmlns:xlink="http://www.w3.org/1999/xlink" x="0px" y="0px"
	 viewBox="0 0 155 174" style="enable-background:new 0 0 155 174;" xml:space="preserve">
<style type="text/css">
	.st0{opacity:0.5;}
	.st1{fill:url(#SVGID_1_);}
	.st2{fill:url(#SVGID_2_);}
	.st3{fill:url(#SVGID_3_);}
	.st4{fill:url(#SVGID_4_);}
	.st5{fill:url(#SVGID_5_);}
	.st6{fill:url(#SVGID_6_);}
	.st7{fill:url(#SVGID_7_);}
	.st8{enable-background:new    ;}
	.st9{clip-path:url(#SVGID_9_);}
	.st10{fill:url(#SVGID_10_);}
	.st11{fill:url(#SVGID_11_);}
	.st12{fill:url(#SVGID_12_);}
	.st13{fill:#FFFFFF;}
	.st14{fill:url(#SVGID_13_);}
	.st15{fill:url(#SVGID_14_);}
</style>
<g>
	<g class="st0">
		<g>
			
				<linearGradient id="SVGID_1_" gradientUnits="userSpaceOnUse" x1="-144.846" y1="123.446" x2="-127.9803" y2="107.6682" gradientTransform="matrix(-1 0 0 1 -1.9812 0)">
				<stop  offset="0" style="stop-color:#FFFFFF"/>
				<stop  offset="1" style="stop-color:#67C7ED"/>
			</linearGradient>
			<path class="st1" d="M129.4,116l0.1,35.2c0.6-0.3,1.1-0.6,1.6-0.9c12.9-7.4,19.3-17.2,19.3-26.9l-0.1-33
				c0,9.7-6.4,17.4-19.3,24.8C130.5,115.4,130,115.7,129.4,116L129.4,116z"/>
		</g>
		<g>
			
				<linearGradient id="SVGID_2_" gradientUnits="userSpaceOnUse" x1="-127.9124" y1="130.6439" x2="-128.1935" y2="109.2875" gradientTransform="matrix(-1 0 0 1 -1.9812 0)">
				<stop  offset="0" style="stop-color:#FFFFFF"/>
				<stop  offset="1" style="stop-color:#67C7ED"/>
			</linearGradient>
			<polygon class="st2" points="122.3,111.7 122.4,146.9 129.5,151.1 129.4,116 			"/>
		</g>
		
			<radialGradient id="SVGID_3_" cx="-83.196" cy="4226.2285" r="72.2276" gradientTransform="matrix(-1 0 0 0.668 -1.9812 -2715.0959)" gradientUnits="userSpaceOnUse">
			<stop  offset="0" style="stop-color:#FF4C1B"/>
			<stop  offset="1" style="stop-color:#FFFFFF"/>
		</radialGradient>
		<path class="st3" d="M14.5,101.6c0.1,0.2,0.2,0.4,0.3,0.6c0.4,0.8,0.7,1.6,1.2,2.4c0.1,0.1,0.1,0.2,0.2,0.3
			c0.4,0.7,0.9,1.4,1.4,2.1c0.2,0.2,0.3,0.5,0.5,0.7c0.4,0.5,0.8,1.1,1.3,1.6c0.3,0.3,0.5,0.6,0.8,0.9c0.5,0.5,1,1.1,1.5,1.6
			c0.3,0.2,0.5,0.5,0.8,0.8c0.8,0.7,1.6,1.4,2.4,2.1c0.2,0.2,0.4,0.3,0.6,0.5c0.8,0.6,1.6,1.2,2.5,1.8c0.2,0.1,0.3,0.2,0.4,0.3
			c1.1,0.7,2.2,1.4,3.4,2.1c1,0.6,2.1,1.2,3.2,1.7c0.3,0.2,0.7,0.3,1.1,0.5c0.7,0.4,1.5,0.7,2.3,1.1c0.4,0.2,0.8,0.4,1.3,0.5
			c0.7,0.3,1.5,0.6,2.2,0.9c0.4,0.2,0.8,0.3,1.3,0.5c0.8,0.3,1.7,0.6,2.5,0.9c0.4,0.1,0.7,0.2,1,0.3c1.5,0.5,3,0.9,4.6,1.3
			c0.3,0.1,0.7,0.2,1,0.3c1.6,0.4,3.2,0.8,4.8,1.1c0.9,0.2,1.9,0.3,2.8,0.5c0.7,0.1,1.3,0.2,2,0.3c0.7,0.1,1.5,0.2,2.2,0.3
			c0.7,0.1,1.3,0.2,2,0.2c0.9,0.1,1.8,0.2,2.7,0.2c0.4,0,0.8,0.1,1.2,0.1c2.6,0.2,5.3,0.3,7.9,0.3c0.4,0,0.8,0,1.2,0
			c0.8,0,1.5,0,2.3-0.1c1.9-0.1,3.8-0.1,5.7-0.3c0.1,0,0.3,0,0.4,0c1.8-0.2,3.5-0.4,5.3-0.6c0.7-0.1,1.4-0.2,2-0.3
			c0.4-0.1,0.8-0.1,1.2-0.2c1.1-0.2,2.1-0.4,3.2-0.6c0.2,0,0.4-0.1,0.6-0.1c1.3-0.3,2.6-0.6,3.8-0.9c0.3-0.1,0.6-0.2,0.9-0.2
			c0.9-0.2,1.8-0.5,2.7-0.7c0.7-0.2,1.4-0.4,2.1-0.6c0.6-0.2,1.2-0.4,1.8-0.6c0.7-0.2,1.4-0.5,2.1-0.8c0.6-0.2,1.2-0.4,1.7-0.7
			c0.9-0.4,1.7-0.7,2.6-1.1c0.4-0.2,0.8-0.4,1.2-0.5c1.3-0.6,2.5-1.2,3.7-1.8l0.1,33.6c-1.2,0.6-2.4,1.3-3.7,1.8
			c-0.4,0.2-0.8,0.4-1.2,0.5c-0.9,0.4-1.7,0.8-2.6,1.1c-0.1,0-0.2,0.1-0.3,0.1c-0.5,0.2-1,0.3-1.4,0.5c-0.7,0.3-1.4,0.5-2,0.7
			c-0.6,0.2-1.2,0.4-1.9,0.6c-0.7,0.2-1.4,0.4-2.1,0.6c-0.2,0-0.3,0.1-0.5,0.1c-0.7,0.2-1.5,0.4-2.2,0.6c-0.3,0.1-0.7,0.2-1,0.3
			c-1.2,0.3-2.4,0.6-3.6,0.8c-0.1,0-0.1,0-0.2,0c-0.2,0.1-0.5,0.1-0.7,0.1c-1,0.2-2.1,0.4-3.1,0.6c-0.4,0.1-0.8,0.1-1.2,0.2
			c-0.4,0.1-0.8,0.1-1.3,0.2c-0.2,0-0.5,0.1-0.7,0.1c-1.8,0.2-3.5,0.4-5.3,0.6c-0.1,0-0.2,0-0.3,0c0,0,0,0-0.1,0
			c-1.9,0.2-3.8,0.2-5.7,0.3c-0.2,0-0.4,0-0.7,0c-0.5,0-1,0-1.6,0c-0.4,0-0.8,0-1.2,0c-1.3,0-2.6,0-3.9-0.1c-1.3,0-2.7-0.1-4-0.2
			c-0.4,0-0.8-0.1-1.2-0.1c-0.7-0.1-1.3-0.1-2-0.2c-0.2,0-0.5-0.1-0.7-0.1c-0.7-0.1-1.4-0.2-2-0.2c-0.7-0.1-1.5-0.2-2.2-0.3
			c-0.7-0.1-1.3-0.2-2-0.3c-0.5-0.1-1-0.1-1.5-0.2c-0.5-0.1-0.9-0.2-1.4-0.3c-1.6-0.3-3.2-0.7-4.8-1.1c-0.3-0.1-0.7-0.2-1-0.3
			c-1.6-0.4-3.1-0.8-4.6-1.3c-0.1,0-0.1,0-0.2-0.1c-0.3-0.1-0.5-0.2-0.8-0.3c-0.8-0.3-1.7-0.6-2.5-0.9c-0.4-0.2-0.9-0.3-1.3-0.5
			c-0.8-0.3-1.5-0.6-2.2-0.9c-0.4-0.2-0.8-0.4-1.3-0.5c-0.8-0.3-1.5-0.7-2.3-1.1c-0.3-0.2-0.7-0.3-1-0.5c-1.1-0.5-2.1-1.1-3.2-1.7
			c-0.3-0.2-0.6-0.4-0.9-0.5c-0.9-0.5-1.7-1-2.5-1.6c-0.1-0.1-0.3-0.2-0.4-0.3c-0.9-0.6-1.7-1.2-2.5-1.8c-0.2-0.2-0.4-0.3-0.6-0.5
			c-0.8-0.6-1.5-1.3-2.2-1.9c-0.1-0.1-0.1-0.1-0.2-0.2c-0.3-0.2-0.5-0.5-0.7-0.7c-0.5-0.5-1.1-1.1-1.6-1.6c-0.3-0.3-0.5-0.6-0.8-0.9
			c-0.2-0.3-0.5-0.6-0.8-0.9c-0.2-0.2-0.4-0.5-0.5-0.7c-0.2-0.2-0.3-0.5-0.5-0.7c-0.5-0.7-1-1.4-1.4-2.1c-0.1-0.1-0.1-0.2-0.2-0.3
			c0,0,0,0,0-0.1c-0.4-0.8-0.8-1.6-1.2-2.3c-0.1-0.2-0.2-0.4-0.3-0.6c-0.1-0.2-0.2-0.5-0.3-0.7c-0.2-0.6-0.4-1.1-0.6-1.7l-0.1-33.6
			C13.8,100,14.1,100.8,14.5,101.6z"/>
	</g>
	<g>
		<g>
			<g>
				<g>
					
						<linearGradient id="SVGID_4_" gradientUnits="userSpaceOnUse" x1="-92.7979" y1="56.4345" x2="-41.379" y2="16.3898" gradientTransform="matrix(-1 0 0 1 -1.9812 0)">
						<stop  offset="0" style="stop-color:#00ADEF"/>
						<stop  offset="1" style="stop-color:#008FD5"/>
					</linearGradient>
					<polygon class="st4" points="79.2,52.7 79.2,91.7 97.7,55.3 97.6,17.5 					"/>
				</g>
				<g>
					
						<linearGradient id="SVGID_5_" gradientUnits="userSpaceOnUse" x1="-176.7151" y1="34.1174" x2="112.0031" y2="128.8025" gradientTransform="matrix(-1 0 0 1 -1.9812 0)">
						<stop  offset="0" style="stop-color:#00ADEF"/>
						<stop  offset="1" style="stop-color:#008FD5"/>
					</linearGradient>
					<polygon class="st5" points="14.8,60.3 14.9,98.2 79.2,91.7 79.2,52.7 					"/>
				</g>
				
					<linearGradient id="SVGID_6_" gradientUnits="userSpaceOnUse" x1="-16.8331" y1="76.0982" x2="-4.3305" y2="76.0982" gradientTransform="matrix(-1 0 0 1 -1.9812 0)">
					<stop  offset="0" style="stop-color:#F7A319"/>
					<stop  offset="0.2115" style="stop-color:#F8A81F"/>
					<stop  offset="0.4925" style="stop-color:#F9B530"/>
					<stop  offset="0.8112" style="stop-color:#FBCB4B"/>
					<stop  offset="1" style="stop-color:#FDDB5F"/>
				</linearGradient>
				<path class="st6" d="M13.9,55c0,0.4,0,0.7,0.1,1.1c0,0.2,0,0.5,0.1,0.7c0,0.4,0.1,0.7,0.2,1.1c0.1,0.8,0.3,1.6,0.6,2.5l0.1,37.9
					c-0.2-0.7-0.4-1.4-0.5-2c0-0.1,0-0.3-0.1-0.4c-0.1-0.4-0.1-0.7-0.2-1.1c0-0.2-0.1-0.5-0.1-0.7c0-0.4-0.1-0.7-0.1-1.1
					c0-0.1,0-0.3,0-0.4c0-0.2,0-0.4,0-0.6c0-9-0.1-28.8-0.1-37.9C13.8,54.3,13.9,54.6,13.9,55z"/>
				<g>
					
						<linearGradient id="SVGID_7_" gradientUnits="userSpaceOnUse" x1="-9.626" y1="-14.589" x2="-74.9612" y2="57.3878" gradientTransform="matrix(-1 0 0 1 -1.9812 0)">
						<stop  offset="0" style="stop-color:#00ADEF"/>
						<stop  offset="1" style="stop-color:#008FD5"/>
					</linearGradient>
					<path class="st7" d="M33.1,27.1c-15.7,9.1-21.8,21.6-18.3,33.3l64.4-7.6l18.5-35.3C75.5,13.8,50.6,16.9,33.1,27.1z"/>
				</g>
				<g>
					<g class="st8">
						<defs>
							<path id="SVGID_8_" class="st8" d="M150.4,92.2c0-9,0-18.1-0.1-27.1c0,9.7-6.4,19.5-19.3,26.9c-0.5,0.3-1.1,0.6-1.6,0.9
								l0.1,27.1c0.6-0.3,1.1-0.6,1.6-0.9C144,111.7,150.5,101.9,150.4,92.2z"/>
						</defs>
						<clipPath id="SVGID_9_">
							<use xlink:href="#SVGID_8_"  style="overflow:visible;"/>
						</clipPath>
						<g class="st9">
							
								<linearGradient id="SVGID_10_" gradientUnits="userSpaceOnUse" x1="-152.4168" y1="95.2458" x2="-131.4124" y2="95.2458" gradientTransform="matrix(-1 0 0 1 -1.9812 0)">
								<stop  offset="0" style="stop-color:#B8E5FA"/>
								<stop  offset="1" style="stop-color:#67C7ED"/>
							</linearGradient>
							<path class="st10" d="M129.4,96.2l0.1,23.9c0.6-0.3,1.1-0.6,1.6-0.9c12.9-7.4,19.3-17.2,19.3-26.9l-0.1-21.7
								c0,9.7-6.4,17.4-19.3,24.8C130.5,95.6,130,95.9,129.4,96.2L129.4,96.2z"/>
						</g>
					</g>
					<g>
						
							<linearGradient id="SVGID_11_" gradientUnits="userSpaceOnUse" x1="-90.0477" y1="100.9208" x2="-174.2025" y2="71.72" gradientTransform="matrix(-1 0 0 1 -1.9812 0)">
							<stop  offset="0" style="stop-color:#B8E5FA"/>
							<stop  offset="1" style="stop-color:#67C7ED"/>
						</linearGradient>
						<polygon class="st11" points="85,68.5 85.1,92.4 129.5,120 129.4,96.2 						"/>
					</g>
					<g>
						
							<linearGradient id="SVGID_12_" gradientUnits="userSpaceOnUse" x1="-191.0077" y1="32.9909" x2="-90.6712" y2="79.062" gradientTransform="matrix(-1 0 0 1 -1.9812 0)">
							<stop  offset="0" style="stop-color:#B8E5FA"/>
							<stop  offset="1" style="stop-color:#67C7ED"/>
						</linearGradient>
						<path class="st12" d="M103.5,36.5L85,68.5l44.4,27.7c0.6-0.3,1.1-0.6,1.6-0.9c25.6-14.8,25.7-34.4,0.3-49.2
							C123.3,41.4,113.7,38.2,103.5,36.5z"/>
					</g>
					<path class="st13" d="M129.5,96c23.1-13.2,25.7-28.4,11.8-42.8c15.2,14.6,11.6,30.6-10.2,43.2c-0.5,0.3-1.1,0.6-1.6,0.9
						L85,68.5L129.5,96z"/>
				</g>
				<g>
					<g>
						
							<linearGradient id="SVGID_13_" gradientUnits="userSpaceOnUse" x1="6.4245" y1="41.4537" x2="-138.5871" y2="118.2664" gradientTransform="matrix(-1 0 0 1 -1.9812 0)">
							<stop  offset="0" style="stop-color:#A42538"/>
							<stop  offset="1" style="stop-color:#FF4C1B"/>
						</linearGradient>
						<path class="st14" d="M13.6,68.1c2.2,7.4,8.2,14.5,18,20.2c7.3,4.3,16,7.3,25.3,9.1c22.1,4.3,47.4,1.6,65.5-8.2L78,61.5
							L13.6,68.1z"/>
					</g>
					
						<linearGradient id="SVGID_14_" gradientUnits="userSpaceOnUse" x1="-124.4287" y1="100.4823" x2="-15.561" y2="100.4823" gradientTransform="matrix(-1 0 0 1 -1.9812 0)">
						<stop  offset="0" style="stop-color:#A42538"/>
						<stop  offset="1" style="stop-color:#FF4C1B"/>
					</linearGradient>
					<path class="st15" d="M14.5,70.5c0.1,0.2,0.2,0.4,0.3,0.6c0.4,0.8,0.7,1.6,1.2,2.4c0.1,0.1,0.1,0.2,0.2,0.3
						c0.4,0.7,0.9,1.4,1.4,2.1c0.2,0.2,0.3,0.5,0.5,0.7c0.4,0.5,0.8,1.1,1.3,1.6c0.3,0.3,0.5,0.6,0.8,0.9c0.5,0.5,1,1.1,1.5,1.6
						c0.3,0.2,0.5,0.5,0.8,0.8c0.8,0.7,1.6,1.4,2.4,2.1c0.2,0.2,0.4,0.3,0.6,0.5c0.8,0.6,1.6,1.2,2.5,1.8c0.2,0.1,0.3,0.2,0.4,0.3
						c1.1,0.7,2.2,1.4,3.4,2.1c1,0.6,2.1,1.2,3.2,1.7c0.3,0.2,0.7,0.3,1.1,0.5c0.7,0.4,1.5,0.7,2.3,1.1c0.4,0.2,0.8,0.4,1.3,0.5
						c0.7,0.3,1.5,0.6,2.2,0.9c0.4,0.2,0.8,0.3,1.3,0.5c0.8,0.3,1.7,0.6,2.5,0.9c0.4,0.1,0.7,0.2,1,0.3c1.5,0.5,3,0.9,4.6,1.3
						c0.3,0.1,0.7,0.2,1,0.3c1.6,0.4,3.2,0.8,4.8,1.1c0.9,0.2,1.9,0.3,2.8,0.5c0.7,0.1,1.3,0.2,2,0.3c0.7,0.1,1.5,0.2,2.2,0.3
						c0.7,0.1,1.3,0.2,2,0.2c0.9,0.1,1.8,0.2,2.7,0.2c0.4,0,0.8,0.1,1.2,0.1c2.6,0.2,5.3,0.3,7.9,0.3c0.4,0,0.8,0,1.2,0
						c0.8,0,1.5,0,2.3-0.1c1.9-0.1,3.8-0.1,5.7-0.3c0.1,0,0.3,0,0.4,0c1.8-0.2,3.5-0.4,5.3-0.6c0.7-0.1,1.4-0.2,2-0.3
						c0.4-0.1,0.8-0.1,1.2-0.2c1.1-0.2,2.1-0.4,3.2-0.6c0.2,0,0.4-0.1,0.6-0.1c1.3-0.3,2.6-0.6,3.8-0.9c0.3-0.1,0.6-0.2,0.9-0.2
						c0.9-0.2,1.8-0.5,2.7-0.7c0.7-0.2,1.4-0.4,2.1-0.6c0.6-0.2,1.2-0.4,1.8-0.6c0.7-0.2,1.4-0.5,2.1-0.8c0.6-0.2,1.2-0.4,1.7-0.7
						c0.9-0.4,1.7-0.7,2.6-1.1c0.4-0.2,0.8-0.3,1.2-0.5c1.3-0.6,2.5-1.2,3.7-1.8l0.1,33.6c-1.2,0.6-2.4,1.3-3.7,1.8
						c-0.4,0.2-0.8,0.4-1.2,0.5c-0.9,0.4-1.7,0.8-2.6,1.1c-0.1,0-0.2,0.1-0.3,0.1c-0.5,0.2-1,0.3-1.4,0.5c-0.7,0.3-1.4,0.5-2,0.7
						c-0.6,0.2-1.2,0.4-1.9,0.6c-0.7,0.2-1.4,0.4-2.1,0.6c-0.2,0-0.3,0.1-0.5,0.1c-0.7,0.2-1.5,0.4-2.2,0.6c-0.3,0.1-0.7,0.2-1,0.3
						c-1.2,0.3-2.4,0.6-3.6,0.8c-0.1,0-0.1,0-0.2,0c-0.2,0-0.5,0.1-0.7,0.1c-1,0.2-2.1,0.4-3.1,0.6c-0.4,0.1-0.8,0.1-1.2,0.2
						c-0.4,0.1-0.8,0.1-1.3,0.2c-0.2,0-0.5,0.1-0.7,0.1c-1.8,0.2-3.5,0.4-5.3,0.6c-0.1,0-0.2,0-0.3,0c0,0,0,0-0.1,0
						c-1.9,0.2-3.8,0.2-5.7,0.3c-0.2,0-0.4,0-0.7,0c-0.5,0-1,0-1.6,0c-0.4,0-0.8,0-1.2,0c-1.3,0-2.6,0-3.9-0.1c-1.3,0-2.7-0.1-4-0.2
						c-0.4,0-0.8-0.1-1.2-0.1c-0.7-0.1-1.3-0.1-2-0.2c-0.2,0-0.5-0.1-0.7-0.1c-0.7-0.1-1.4-0.2-2-0.2c-0.7-0.1-1.5-0.2-2.2-0.3
						c-0.7-0.1-1.3-0.2-2-0.3c-0.5-0.1-1-0.1-1.5-0.2c-0.5-0.1-0.9-0.2-1.4-0.3c-1.6-0.3-3.2-0.7-4.8-1.1c-0.3-0.1-0.7-0.2-1-0.3
						c-1.6-0.4-3.1-0.8-4.6-1.3c-0.1,0-0.1,0-0.2-0.1c-0.3-0.1-0.5-0.2-0.8-0.3c-0.8-0.3-1.7-0.6-2.5-0.9c-0.4-0.2-0.9-0.3-1.3-0.5
						c-0.8-0.3-1.5-0.6-2.2-0.9c-0.4-0.2-0.8-0.3-1.3-0.5c-0.8-0.3-1.5-0.7-2.3-1.1c-0.3-0.2-0.7-0.3-1-0.5
						c-1.1-0.5-2.1-1.1-3.2-1.7c-0.3-0.2-0.6-0.4-0.9-0.5c-0.9-0.5-1.7-1-2.5-1.6c-0.1-0.1-0.3-0.2-0.4-0.3
						c-0.9-0.6-1.7-1.2-2.5-1.8c-0.2-0.2-0.4-0.3-0.6-0.5c-0.8-0.6-1.5-1.3-2.2-1.9c-0.1-0.1-0.1-0.1-0.2-0.2
						c-0.3-0.2-0.5-0.5-0.7-0.7c-0.5-0.5-1.1-1.1-1.6-1.6c-0.3-0.3-0.5-0.6-0.8-0.9c-0.2-0.3-0.5-0.6-0.8-0.9
						c-0.2-0.2-0.4-0.5-0.5-0.7c-0.2-0.2-0.3-0.5-0.5-0.7c-0.5-0.7-1-1.4-1.4-2.1c-0.1-0.1-0.1-0.2-0.2-0.3c0,0,0,0,0-0.1
						c-0.4-0.8-0.8-1.6-1.2-2.3c-0.1-0.2-0.2-0.4-0.3-0.6c-0.1-0.2-0.2-0.5-0.3-0.7c-0.2-0.6-0.4-1.1-0.6-1.7l-0.1-33.6
						C13.8,68.9,14.1,69.7,14.5,70.5z"/>
				</g>
			</g>
			<path class="st13" d="M78.1,52.7c0,0,19.1-35.3,19.6-35.3L79.2,53.8l-64.4,6.5C14.7,60,78.1,52.7,78.1,52.7z"/>
			<path class="st13" d="M30.5,87.2c7.3,4.3,16,7.3,25.3,9.1c21.9,4.3,48,2.2,66.1-7.4l0.4,0.3v0.6c-18,9.3-43.8,11.8-65.5,7.6
				c-9.2-1.8-17.9-4.8-25.3-9.1c-4.4-2.5-8-5.3-10.8-8.3C23.5,82.5,26.7,85,30.5,87.2z"/>
		</g>
	</g>
</g>
</svg>
